<?xml version="1.0" encoding="UTF-8"?>
<svg width="1200pt" height="1200pt" version="1.1" viewBox="0 0 1200 1200" xmlns="http://www.w3.org/2000/svg">
 <g>
  <path d="m173 1033.9h446.05v64.883h-446.05z"/>
  <path d="m651.29 312.12v-40.559h24.48v-72.961h-559.56v72.961h24.48v665.04h-24.48v64.801h559.56v-64.801h-24.48v-48.719h208.32c45.48 0 83.879-35.039 83.879-80.641v-265.44c0-45.48 36.121-83.762 81.602-83.762h5.6406c45.48 0 83.039-36.238 83.039-81.719v-64.199zm-24 624.6h-462.6l0.003906-665.16h462.6zm81-97.438h-40.559v-48.719h40.559zm0-429.84h-40.559v-40.559h40.559zm89.16 429.84h-40.559v-48.719h40.559zm0-429.84h-48.602v-40.559h48.602zm81.121 429.84h-40.559v-48.719h40.559zm0-429.84h-48.602v-40.559h48.602zm81.121 0h-40.559v-40.559h40.559z"/>
  <path d="m164.7 936.6h462.6v0.12109h-462.6z"/>
  <path d="m173 101.23h446.05v64.883h-446.05z"/>
 </g>
</svg>
